<svg width="64" height="64" viewBox="0 0 64 64" fill="none" xmlns="http://www.w3.org/2000/svg">
  <!-- Engranaje Principal -->
  <g transform="translate(32, 32)">
    <!-- Dientes del engranaje -->
    <path d="M-4,-20 L-2,-22 L2,-22 L4,-20 L4,-16 L8,-16 L10,-14 L12,-10 L16,-10 L16,-8 L20,-4 L22,-2 L22,2 L20,4 L16,4 L16,8 L14,10 L10,12 L10,16 L8,16 L4,16 L4,20 L2,22 L-2,22 L-4,20 L-4,16 L-8,16 L-10,14 L-12,10 L-16,10 L-16,8 L-20,4 L-22,2 L-22,-2 L-20,-4 L-16,-4 L-16,-8 L-14,-10 L-10,-12 L-10,-16 L-8,-16 L-4,-16 Z" fill="#FF5316"/>
    
    <!-- Círculo central -->
    <circle cx="0" cy="0" r="8" fill="#1A1A1A"/>
    
    <!-- Agujero central -->
    <circle cx="0" cy="0" r="4" fill="transparent" stroke="#FF5316" stroke-width="1"/>
  </g>
  
  <!-- Efecto de brillo -->
  <defs>
    <radialGradient id="shine" cx="0.3" cy="0.3" r="0.7">
      <stop offset="0%" stop-color="#FFB366" stop-opacity="0.3"/>
      <stop offset="100%" stop-color="#FF5316" stop-opacity="0"/>
    </radialGradient>
  </defs>
  <circle cx="32" cy="32" r="24" fill="url(#shine)"/>
</svg>
